{"title":"Red Dawn 2012 BRRip 720p x264 AAC - PRiSTiNE [P2PDL]","uid":8185270,"size":556256017,"categoryP":"video","categoryS":"hd___movies","magnet":"?xt=urn:btih:112343c0571457304e5bab4381fd4b94d0597449&amp;dn=Red+Dawn+2012+BRRip+720p+x264+AAC+-+PRiSTiNE+%5BP2PDL%5D&amp;tr=udp%3A%2F%2Ftracker.openbittorrent.com%3A80&amp;tr=udp%3A%2F%2Fopen.demonii.com%3A1337&amp;tr=udp%3A%2F%2Ftracker.coppersurfer.tk%3A6969&amp;tr=udp%3A%2F%2Fexodus.desync.com%3A6969","seeders":1,"leechers":0,"uploader":"Vitamin_X","files":-1,"time":1361711480,"description":"_________________________  Visit us at _________________________\n  &lt;a href=&quot;\nhttp://p2pdl.com&quot; rel=&quot;nofollow&quot; target=&quot;_NEW&quot;&gt;\nhttp://p2pdl.com&lt;/a&gt;  ____________________________ &lt;a href=&quot; http://p2pdl.com&quot; rel=&quot;nofollow&quot; target=&quot;_NEW&quot;&gt; http://p2pdl.com&lt;/a&gt;\n\n &lt;a href=&quot;\nhttp://cdn.piczend.com/images/L5ib8Z1T/1361600450_6309.jpg&quot; rel=&quot;nofollow&quot; target=&quot;_NEW&quot;&gt;\nhttp://cdn.piczend.com/images/L5ib8Z1T/1361600450_6309.jpg&lt;/a&gt;\n\nRed Dawn 2012 BRRip 720p x264 AAC - PRiSTiNE\n\nGenre: Action\nPlot: A group of teenagers look to save their town from an invasion of North Korean soldiers.\nDirector: Dan Bradley\nStars: Chris Hemsworth, Isabel Lucas, Josh Hutcherson.\nRated: PG-13 for sequences of intense war violence and action, and for language.\n\nInfo: &lt;a href=&quot;\nhttp://www.imdb.com/title/tt1234719/&quot; rel=&quot;nofollow&quot; target=&quot;_NEW&quot;&gt;\nhttp://www.imdb.com/title/tt1234719/&lt;/a&gt;\n &lt;a href=&quot;\nhttp://www.rottentomatoes.com/m/red_dawn_2012/&quot; rel=&quot;nofollow&quot; target=&quot;_NEW&quot;&gt;\nhttp://www.rottentomatoes.com/m/red_dawn_2012/&lt;/a&gt;\n\nGeneral\nComplete name                  : Red Dawn 2012 BRRip 720p x264 AAC - PRiSTiNE.mp4\nFormat                         : MPEG-4\nFormat profile                 : Base Media / Version 2\nCodec ID                       : mp42\nFile size                      : 524 MiB\nDuration                       : 1h 33mn\nOverall bit rate mode          : Variable\nOverall bit rate               : 785 Kbps\n\nSource                         : 720p Bluray Sparks (Thanks)\nVideo\nFormat                         : AVC\nWidth                          : 1 280 pixels\nHeight                         : 536 pixels\nDisplay aspect ratio           : 2.40:1\nFrame rate mode                : Variable\nFrame rate                     : 23.976 fps\nScan type                      : Progressive\nBits/(Pixel*Frame)             : 0.043\nStream size                    : 467 MiB (89%)\nWriting library                : x264 core 129\n\nAudio\nFormat                         : AAC\nBit rate mode                  : Variable\nBit rate                       : 79.9 Kbps\nChannel(s)                     : 2 channels\nChannel positions              : Front: L R\nSampling rate                  : 48.0 KHz\nStream size                    : 53.4 MiB (10%)\nLanguage                       : English\n\nSubtitle                       : Yes ( English)\n\n\nScreens: &lt;a href=&quot;\nhttp://cdn.piczend.com/images/LdcfskYG/1361706637_1.jpg&quot; rel=&quot;nofollow&quot; target=&quot;_NEW&quot;&gt;\nhttp://cdn.piczend.com/images/LdcfskYG/1361706637_1.jpg&lt;/a&gt; &lt;a href=&quot;\nhttp://cdn.piczend.com/images/24HKd9hd/1361706637_2.jpg&quot; rel=&quot;nofollow&quot; target=&quot;_NEW&quot;&gt;\nhttp://cdn.piczend.com/images/24HKd9hd/1361706637_2.jpg&lt;/a&gt; &lt;a href=&quot;\nhttp://cdn.piczend.com/images/ZUbSEhd9/1361706637_3.jpg&quot; rel=&quot;nofollow&quot; target=&quot;_NEW&quot;&gt;\nhttp://cdn.piczend.com/images/ZUbSEhd9/1361706637_3.jpg&lt;/a&gt; &lt;a href=&quot;\nhttp://cdn.piczend.com/images/MwOvyeFm/1361706637_4.jpg&quot; rel=&quot;nofollow&quot; target=&quot;_NEW&quot;&gt;\nhttp://cdn.piczend.com/images/MwOvyeFm/1361706637_4.jpg&lt;/a&gt;\n\n\nThumbs:\n &lt;a href=&quot;\nhttp://cdn.piczend.com/images/RfApvBXf/1361706637_thumbs.jpg&quot; rel=&quot;nofollow&quot; target=&quot;_NEW&quot;&gt;\nhttp://cdn.piczend.com/images/RfApvBXf/1361706637_thumbs.jpg&lt;/a&gt;\n----------------------------------------------------------------------------------------------------\n\n\nRecommend to you to use latest version of VLC player. Install K-Lite Codec Pack or shark007 codecs\nin case of any kind of problem in playback (For non-VLC Media Player users). Alternatively, install\nCore AVC codecs, the fastest decoder that there is coupled with Community Center Codec Pack and play\non Windows Media Player Classic. Check sample to be sure.\nEnjoy!\n\nGreets to: VYTO, a2zRG, MusiK_KinG, Kuroyukihime, TorDigger, Ash968, StyLishSaLH, Masta and staff members at\nExtraTorrent, TPB, H33T, KAT, 1337x, PublicHD, Ahashare, BTScene, SilverTorrent, LimeTorrents, TorrentMafia,\nP2PDL, and all others.\n\nEncoder Notes: Looking For Early Access To Anything You Can Provide DVDScr, R5, DVDR, BluRay, Direct\nAudio, Early Music Releases, Seedboxes, Dedicated Servers anything u can provide, Advance / Promo CDs/\nDVDs. If You Got anything to offer contact me at &quot;&lt;a class=&quot;__cf_email__&quot; href=&quot;/cdn-cgi/l/email-protection&quot; data-cfemail=&quot;4c3c3e2b0c24393f24622f2321&quot;&gt;[email&amp;#160;protected]&lt;/a&gt;&lt;script cf-hash='f9e31' type=&quot;text/javascript&quot;&gt;\n/* &lt;![CDATA[ */!function(){try{var t=&quot;currentScript&quot;in document?document.currentScript:function(){for(var t=document.getElementsByTagName(&quot;script&quot;),e=t.length;e--;)if(t[e].getAttribute(&quot;cf-hash&quot;))return t[e]}();if(t&amp;&amp;t.previousSibling){var e,r,n,i,c=t.previousSibling,a=c.getAttribute(&quot;data-cfemail&quot;);if(a){for(e=&quot;&quot;,r=parseInt(a.substr(0,2),16),n=2;a.length-n;n+=2)i=parseInt(a.substr(n,2),16)^r,e+=String.fromCharCode(i);e=document.createTextNode(e),c.parentNode.replaceChild(e,c)}}}catch(u){}}();/* ]]&gt; */&lt;/script&gt;&quot;.","torrent":{"xt":"urn:btih:112343c0571457304e5bab4381fd4b94d0597449","amp;dn":"Red+Dawn+2012+BRRip+720p+x264+AAC+-+PRiSTiNE+%5BP2PDL%5D","amp;tr":["udp%3A%2F%2Ftracker.openbittorrent.com%3A80","udp%3A%2F%2Fopen.demonii.com%3A1337","udp%3A%2F%2Ftracker.coppersurfer.tk%3A6969","udp%3A%2F%2Fexodus.desync.com%3A6969"],"infoHash":"112343c0571457304e5bab4381fd4b94d0597449","infoHashBuffer":{"type":"Buffer","data":[17,35,67,192,87,20,87,48,78,91,171,67,129,253,75,148,208,89,116,73]},"announce":[],"urlList":[]}}